<svg width="2034.604" height="574.599" viewBox="0 0 2034.604 574.599" xmlns="http://www.w3.org/2000/svg"><g id="svgGroup" stroke-linecap="round" fill-rule="nonzero" font-size="9pt" stroke="#ffffff" stroke-width="0.25mm" fill="#ffffff" style="stroke:#ffffff;stroke-width:0.25mm;fill:#ffffff"><path d="M 198.657 316.093 A 41.103 41.103 0 0 0 194.612 297.883 A 44.712 44.712 0 0 0 184.324 284.408 Q 172.819 274.224 144.624 261.352 A 550.532 550.532 0 0 0 123.972 252.472 Q 64.124 227.829 36.462 203.06 A 106.734 106.734 0 0 1 1.76 143.588 A 103.945 103.945 0 0 1 0 124.728 Q 0 94.804 17.854 65.885 A 147.489 147.489 0 0 1 19.332 63.52 A 117.544 117.544 0 0 1 81.223 13.832 A 163.025 163.025 0 0 1 92.252 10.822 A 137.315 137.315 0 0 1 123.721 7.043 A 120.821 120.821 0 0 1 153.867 10.819 A 132.181 132.181 0 0 1 195.388 29.926 A 156.337 156.337 0 0 1 198.115 31.857 A 138.111 138.111 0 0 1 228.33 61.485 A 175.99 175.99 0 0 1 236.102 72.81 Q 243.06 83.92 245.933 93.044 A 152.415 152.415 0 0 1 246.719 95.62 Q 249.001 103.341 249.79 109.219 A 43.109 43.109 0 0 1 250.208 114.921 Q 250.208 132.231 237.572 136.153 A 28.646 28.646 0 0 1 229.084 137.302 Q 224.806 137.302 221.369 136.346 A 18.061 18.061 0 0 1 214.751 133.027 Q 209.47 128.752 202.681 115.927 Q 182.815 81.476 159.177 69.28 Q 135.54 57.084 116.68 57.084 A 59.896 59.896 0 0 0 71.791 75.492 A 84.05 84.05 0 0 0 57.585 95.81 Q 49.79 110.646 49.79 123.722 A 41.088 41.088 0 0 0 52.209 137.749 A 46.144 46.144 0 0 0 60.1 151.384 A 76.248 76.248 0 0 0 71.194 162.407 Q 86.24 174.812 112.813 187.217 A 451.801 451.801 0 0 0 141.072 199.162 Q 183.004 215.248 207.593 230.424 A 145.117 145.117 0 0 1 224.181 242.162 A 93.736 93.736 0 0 1 256.243 294.97 A 108.024 108.024 0 0 1 256.891 297.854 A 95.762 95.762 0 0 1 259.009 317.602 A 92.984 92.984 0 0 1 258.584 326.498 A 96.157 96.157 0 0 1 246.938 363.62 A 145.837 145.837 0 0 1 239.926 375.403 A 117.277 117.277 0 0 1 200.04 413.284 A 140.869 140.869 0 0 1 180.856 422.458 A 107.958 107.958 0 0 1 141.826 430.007 A 110.886 110.886 0 0 1 139.613 429.984 A 122.55 122.55 0 0 1 124.727 428.749 A 245.42 245.42 0 0 1 114.273 426.75 Q 58.227 414.741 29.421 379.714 A 127.522 127.522 0 0 1 29.28 379.535 Q 20.043 367.832 16.42 357.601 A 37.708 37.708 0 0 1 14.082 345.011 L 14.082 343.251 Q 15.088 327.157 22.506 325.397 Q 28.302 324.022 30.951 323.721 A 11.313 11.313 0 0 1 32.187 323.637 A 21.006 21.006 0 0 1 36.495 324.102 Q 46.609 326.22 59.597 337.97 A 143.27 143.27 0 0 0 71.194 347.741 A 106.684 106.684 0 0 0 136.797 370.409 Q 166.218 370.409 184.575 353.561 A 41.287 41.287 0 0 0 196.698 333.823 A 55.996 55.996 0 0 0 198.657 318.608 L 198.657 316.093 Z" id="0" vector-effect="non-scaling-stroke"/><path d="M 385.747 361.357 A 387.411 387.411 0 0 0 383.299 376.016 A 492.888 492.888 0 0 0 380.718 396.562 Q 377.197 435.539 354.565 435.539 A 19.948 19.948 0 0 1 351.874 435.353 Q 346.498 434.621 340.483 431.012 A 3.718 3.718 0 0 1 340.144 430.881 A 3.027 3.027 0 0 1 339.226 430.258 A 26.37 26.37 0 0 1 338.828 430.043 A 23.068 23.068 0 0 1 332.059 424.474 Q 329.89 421.834 328.429 415.728 A 67.439 67.439 0 0 1 327.533 411.272 A 90.507 90.507 0 0 1 326.896 406.719 Q 325.793 397.257 325.396 380.971 Q 324.413 352.288 324.198 277.407 A 15951.152 15951.152 0 0 1 324.138 231.852 Q 324.138 206.203 323.887 195.893 Q 323.887 155.344 323.957 125.758 A 14901.912 14901.912 0 0 1 324.012 107.251 A 2980.384 2980.384 0 0 1 324.106 91.879 Q 324.247 75.89 324.555 63.944 A 812.765 812.765 0 0 1 324.893 53.312 Q 325.647 33.949 327.659 25.022 A 49.85 49.85 0 0 1 328.305 22.459 Q 330.222 15.658 333.317 13.204 Q 336.963 10.312 342.495 9.054 A 10.283 10.283 0 0 0 343.33 8.852 A 8.387 8.387 0 0 0 344.758 8.3 A 44.017 44.017 0 0 1 345.8 7.967 Q 348.036 7.283 350.085 6.927 A 24.722 24.722 0 0 1 354.314 6.54 A 20.334 20.334 0 0 1 355.326 6.565 A 14.945 14.945 0 0 1 366.133 11.569 Q 372.027 18.052 375.081 37.428 A 205.797 205.797 0 0 1 376.569 49.289 A 481.189 481.189 0 0 1 377.807 64.724 Q 379.04 83.511 379.704 110.253 A 2299.809 2299.809 0 0 1 380.215 138.056 Q 380.215 146.857 380.466 154.401 Q 380.655 179.116 381.056 192.719 A 440.474 440.474 0 0 0 381.346 200.545 A 157.962 157.962 0 0 0 381.556 204.149 Q 382.234 213.747 383.735 213.747 A 1.027 1.027 0 0 0 384.029 213.701 Q 386.096 213.083 390.776 204.191 L 393.291 199.916 A 367.49 367.49 0 0 1 395.888 195.716 Q 445.337 116.933 502.427 116.933 A 64.967 64.967 0 0 1 525.562 121.208 Q 547.372 129.61 561.176 154.535 A 136.632 136.632 0 0 1 571.077 177.536 Q 576.436 196.207 580.013 224.981 A 696.024 696.024 0 0 1 582.896 253.227 A 1254.158 1254.158 0 0 1 585.425 290.184 A 1014.253 1014.253 0 0 1 586.919 344.006 Q 586.919 387.619 582.928 406.061 A 43.249 43.249 0 0 1 580.381 414.416 A 43.705 43.705 0 0 1 578.326 417.309 Q 571.011 426.738 561.772 426.738 A 19.186 19.186 0 0 1 559.279 426.572 A 23.107 23.107 0 0 1 555.486 425.732 Q 541.152 420.702 537.632 399.579 Q 536.626 391.281 534.866 311.567 A 4752.668 4752.668 0 0 0 534.498 293.389 Q 534.079 274.534 533.593 260.692 A 1196.869 1196.869 0 0 0 533.105 248.449 Q 532.351 231.852 531.102 221.055 A 154.744 154.744 0 0 0 530.214 214.501 A 132.381 132.381 0 0 0 529.37 209.762 A 115.611 115.611 0 0 0 524.556 192.372 A 68.648 68.648 0 0 0 520.388 182.777 Q 512.168 167.477 499.158 167.477 A 30.016 30.016 0 0 0 493.179 168.093 Q 481.812 170.4 469.123 181.339 A 126.598 126.598 0 0 0 458.169 192.121 A 175.123 175.123 0 0 0 449.622 202.25 Q 433.281 223.12 418.689 253.604 Q 400.332 291.952 390.273 339.228 L 385.747 361.357 Z" id="1" vector-effect="non-scaling-stroke"/><path d="M 864.285 450.878 A 18.744 18.744 0 0 1 860.545 450.488 Q 855.576 449.477 849.951 445.849 Q 842.156 440.82 838.51 416.679 A 212.561 212.561 0 0 1 837.25 406.538 Q 835.601 390.359 835.091 366.323 A 1092.357 1092.357 0 0 1 834.863 343.251 Q 834.863 339.843 834.17 338.744 A 0.956 0.956 0 0 0 833.354 338.222 A 1.678 1.678 0 0 0 832.5 338.562 Q 830.172 340.097 824.26 348.569 A 271.49 271.49 0 0 0 821.033 353.31 A 271.193 271.193 0 0 1 804.667 374.945 Q 795.387 385.94 786.093 394.065 A 109.41 109.41 0 0 1 765.082 408.758 Q 737.043 423.468 714.663 423.468 A 69.918 69.918 0 0 1 672.562 410.404 A 83.238 83.238 0 0 1 653.054 390.024 Q 640.721 372.284 636.447 345.576 A 192.173 192.173 0 0 1 634.194 317.35 A 209.115 209.115 0 0 1 672.668 199.539 Q 709.634 146.857 767.219 127.494 A 159.629 159.629 0 0 1 782.024 123.97 A 127.55 127.55 0 0 1 805.442 121.711 Q 832.852 121.711 849.951 133.027 A 40.747 40.747 0 0 1 853.936 136.148 A 27.763 27.763 0 0 1 863.782 157.67 A 103.693 103.693 0 0 0 863.797 159.513 Q 863.828 161.26 863.923 162.432 A 17.08 17.08 0 0 0 864.033 163.454 A 6.254 6.254 0 0 0 864.142 164.029 Q 864.267 164.55 864.473 164.963 A 2.79 2.79 0 0 0 865.291 165.968 Q 866.029 166.523 867.582 166.941 A 19.249 19.249 0 0 0 868.811 167.226 A 15.475 15.475 0 0 1 869.515 167.367 Q 882.699 170.33 887.538 195.855 A 144.836 144.836 0 0 1 889.431 209.975 A 962.315 962.315 0 0 1 891.594 239.362 A 781.569 781.569 0 0 1 892.952 284.408 A 2435.93 2435.93 0 0 1 892.681 321.944 Q 891.034 428.436 879.373 441.825 A 52.708 52.708 0 0 1 878.399 442.891 Q 874.018 447.557 869.939 449.497 A 13.118 13.118 0 0 1 864.285 450.878 Z M 702.013 359.076 A 21.477 21.477 0 0 0 720.698 369.906 A 27.968 27.968 0 0 0 723.242 369.788 Q 726.55 369.486 730.146 368.412 A 51.412 51.412 0 0 0 736.792 365.883 Q 754.119 357.573 770.701 336.085 A 214.479 214.479 0 0 0 784.57 315.59 A 270.129 270.129 0 0 0 788.18 309.401 Q 799.056 290.178 808.051 267.135 A 456.443 456.443 0 0 0 822.793 222.297 A 3223.643 3223.643 0 0 1 825.748 212.018 A 2728.258 2728.258 0 0 1 828.577 202.305 Q 830.651 195.233 832.019 190.919 A 184.093 184.093 0 0 1 832.852 188.349 Q 833.889 185.237 834.213 182.957 A 13.586 13.586 0 0 0 834.36 181.056 A 5.878 5.878 0 0 0 834.333 180.481 A 4.787 4.787 0 0 0 833.857 178.793 A 3.894 3.894 0 0 0 833.387 178.246 Q 831.121 176.031 823.17 174.015 A 71.917 71.917 0 0 0 805.442 171.752 A 73.198 73.198 0 0 0 779.292 176.685 A 96.891 96.891 0 0 0 759.172 187.343 A 151.602 151.602 0 0 0 709.508 243.545 A 175.281 175.281 0 0 0 700.027 265.094 A 138.115 138.115 0 0 0 691.528 312.07 A 129.783 129.783 0 0 0 692.283 325.9 A 148.465 148.465 0 0 0 693.334 333.449 Q 696.099 350.036 702.013 359.076 Z" id="2" vector-effect="non-scaling-stroke"/><path d="M 985.994 427.24 L 980.713 425.48 Q 972.917 423.468 968.391 416.679 A 23.273 23.273 0 0 1 966.249 412.487 Q 964.274 407.59 962.864 399.714 A 152.552 152.552 0 0 1 961.602 391.155 Q 959.338 372.421 958.584 334.701 A 4402.963 4402.963 0 0 1 958.054 301.672 Q 957.578 263.584 957.578 217.77 A 19317.916 19317.916 0 0 1 957.585 200.994 Q 957.6 183.535 957.649 170.456 A 5329.321 5329.321 0 0 1 957.704 158.802 A 924.329 924.329 0 0 1 957.714 157.23 Q 957.828 142.392 958.388 133.365 A 141.712 141.712 0 0 1 958.835 127.746 Q 959.574 120.544 960.991 116.732 A 12.083 12.083 0 0 1 962.104 114.418 A 16.954 16.954 0 0 1 965.077 110.962 A 22.138 22.138 0 0 1 968.643 108.383 L 969.9 107.629 A 36.597 36.597 0 0 1 971.853 106.411 Q 974.329 104.977 976.701 104.164 A 18.538 18.538 0 0 1 982.725 103.102 A 14.962 14.962 0 0 1 987.663 103.928 A 17.004 17.004 0 0 1 992.532 106.623 A 26.752 26.752 0 0 1 999.514 114.655 Q 1001.782 118.529 1003.354 123.573 A 69.501 69.501 0 0 1 1005.608 133.53 A 509.42 509.42 0 0 0 1006.043 136.761 Q 1006.727 141.714 1007.238 144.55 A 49.896 49.896 0 0 0 1007.62 146.48 A 17.52 17.52 0 0 0 1007.749 147.023 Q 1008.218 148.854 1008.86 149.509 A 1.07 1.07 0 0 0 1009.631 149.875 A 2.095 2.095 0 0 0 1010.302 149.749 Q 1011.646 149.29 1013.874 147.16 A 41.741 41.741 0 0 0 1015.415 145.6 A 146.164 146.164 0 0 1 1038.478 128.14 A 101.797 101.797 0 0 1 1091.86 112.658 A 98.521 98.521 0 0 1 1145.482 128.551 A 139.449 139.449 0 0 1 1172.581 151.384 A 136.586 136.586 0 0 1 1175.816 155.325 Q 1184.552 166.392 1187.881 175.735 A 32.389 32.389 0 0 1 1189.932 186.589 L 1189.932 187.846 Q 1189.513 196.502 1186.963 200.701 A 7.534 7.534 0 0 1 1181.508 204.568 Q 1175.276 205.488 1173.111 205.66 A 10.476 10.476 0 0 1 1172.329 205.7 Q 1162.711 205.7 1150.122 196.506 A 109.426 109.426 0 0 1 1141.399 189.355 A 125.999 125.999 0 0 0 1129.808 179.233 Q 1110.818 164.711 1092.866 164.711 Q 1067.971 164.711 1039.556 193.378 Q 1025.725 206.454 1019.69 217.77 Q 1013.655 229.086 1012.9 245.431 Q 1012.146 261.777 1012.146 276.362 A 1096.339 1096.339 0 0 0 1012.22 288.704 Q 1012.293 295.231 1012.441 302.471 A 2104.141 2104.141 0 0 0 1012.9 320.871 Q 1013.655 349.286 1013.655 368.398 A 886.174 886.174 0 0 1 1013.63 375.151 Q 1013.576 382.228 1013.403 387.76 Q 1012.649 408.884 1008.374 415.799 A 18.06 18.06 0 0 1 1006.869 417.886 Q 1002.5 423.114 994.041 425.229 Q 991.202 426.565 989.028 427.013 A 10.085 10.085 0 0 1 987 427.24 L 985.994 427.24 Z" id="3" vector-effect="non-scaling-stroke"/><path d="M 1473.333 409.135 Q 1472.583 414.703 1470.671 418.903 A 20.78 20.78 0 0 1 1463.4 427.743 A 44.474 44.474 0 0 1 1459.921 429.882 Q 1453.755 433.276 1448.437 433.276 A 27.496 27.496 0 0 1 1441.611 432.373 A 37.999 37.999 0 0 1 1435.613 430.258 A 134.385 134.385 0 0 1 1434.103 429.428 Q 1429.379 426.79 1428.069 425.48 Q 1427.817 424.474 1419.519 418.188 L 1378.53 385.749 A 2775.343 2775.343 0 0 1 1357.659 369.089 A 3267.481 3267.481 0 0 1 1335.781 351.298 L 1326.226 343.754 L 1297.81 320.116 L 1297.056 319.865 A 172.687 172.687 0 0 0 1296.271 319.114 Q 1291.474 314.553 1289.498 313.431 A 2.761 2.761 0 0 0 1288.632 313.075 A 117.437 117.437 0 0 0 1288.176 313.006 Q 1286.96 312.824 1286.746 312.824 Q 1284.231 312.824 1284.231 324.391 A 237.401 237.401 0 0 0 1284.286 329.25 Q 1284.408 335.141 1284.797 343.44 A 1095.339 1095.339 0 0 0 1285.237 352.052 L 1285.237 354.064 A 987.183 987.183 0 0 1 1285.438 357.864 Q 1286.243 373.668 1286.243 384.24 Q 1286.243 389.772 1286.005 393.878 A 82.854 82.854 0 0 1 1285.74 397.316 Q 1284.985 410.141 1280.962 414.667 A 48.157 48.157 0 0 1 1278.07 417.81 Q 1274.977 420.874 1271.782 422.789 A 21.018 21.018 0 0 1 1260.845 425.983 A 24.801 24.801 0 0 1 1254.81 425.229 A 22.523 22.523 0 0 1 1245.201 419.362 Q 1239.161 413.178 1236.453 401.591 Q 1233.812 383.548 1231.172 262.696 A 15519.315 15519.315 0 0 1 1230.417 226.069 A 10353.354 10353.354 0 0 1 1229.622 178.531 Q 1229.298 155.904 1229.121 135.561 A 5259.832 5259.832 0 0 1 1228.909 90.026 Q 1228.909 59.536 1229.486 43.343 A 304.583 304.583 0 0 1 1229.915 34.452 A 114.503 114.503 0 0 1 1230.13 32.383 Q 1233.797 0.002 1253.301 0.002 A 21.728 21.728 0 0 1 1254.398 0.03 Q 1256.386 0.13 1258.58 0.59 A 38.58 38.58 0 0 1 1262.856 1.762 A 27.879 27.879 0 0 1 1265.887 2.968 A 21.966 21.966 0 0 1 1273.669 8.929 A 15.102 15.102 0 0 1 1275.417 11.669 Q 1278.129 17.004 1279.579 27.537 Q 1280.993 37.816 1281.771 56.298 A 862.474 862.474 0 0 1 1282.219 69.532 A 1939.248 1939.248 0 0 1 1282.545 83.932 Q 1282.873 101.026 1283.068 123.636 A 6700.523 6700.523 0 0 1 1283.225 146.857 A 12077.042 12077.042 0 0 0 1283.546 169.38 Q 1284.486 231.042 1285.425 242.131 A 12.721 12.721 0 0 0 1285.74 244.426 L 1286.243 244.677 Q 1292.529 244.677 1367.214 173.764 Q 1394.467 147.313 1406.07 139.784 A 24.991 24.991 0 0 1 1410.969 137.176 A 163.194 163.194 0 0 1 1413.376 136.341 Q 1419.046 134.426 1422.063 133.943 A 11.235 11.235 0 0 1 1423.794 133.781 Q 1431.688 133.781 1436.633 142.036 A 35.795 35.795 0 0 1 1439.385 147.863 A 14.053 14.053 0 0 1 1439.907 149.978 A 17.555 17.555 0 0 1 1440.139 152.892 Q 1440.139 181.056 1348.857 260.016 Q 1334.775 272.087 1332.135 274.853 Q 1329.495 277.619 1329.495 279.379 A 1.292 1.292 0 0 0 1329.512 279.584 Q 1329.815 281.47 1335.485 285.89 A 104.936 104.936 0 0 0 1338.547 288.18 L 1352.378 298.49 Q 1365.58 308.612 1368 310.647 A 8.576 8.576 0 0 1 1368.472 311.064 Q 1373.988 315.559 1395.773 332.504 A 12090.204 12090.204 0 0 0 1406.694 340.988 A 3859.995 3859.995 0 0 1 1408.033 342.03 Q 1420.675 351.871 1428.336 358.009 A 603.021 603.021 0 0 1 1433.098 361.86 L 1463.022 385.749 Q 1473.584 395.053 1473.584 405.866 L 1473.333 409.135 Z" id="4" vector-effect="non-scaling-stroke"/><path d="M 1548.521 294.718 A 86.492 86.492 0 0 0 1550.198 308.791 A 96.174 96.174 0 0 0 1559.836 335.079 A 91.271 91.271 0 0 0 1569.297 349.497 A 65.63 65.63 0 0 0 1585.989 364.374 A 37.792 37.792 0 0 0 1605.603 369.906 A 38.237 38.237 0 0 0 1606.531 369.895 Q 1635.097 369.202 1670.665 325.901 A 381.317 381.317 0 0 0 1691.353 297.988 A 292.33 292.33 0 0 1 1694.931 292.768 Q 1703.469 280.614 1709.102 275.648 A 18.785 18.785 0 0 1 1712.853 272.967 A 61.431 61.431 0 0 1 1715.175 271.843 Q 1718.726 270.221 1721.377 269.642 A 12.603 12.603 0 0 1 1724.043 269.321 A 16.36 16.36 0 0 1 1726.871 269.57 Q 1729.593 270.047 1732.407 271.435 A 30.973 30.973 0 0 1 1737.119 274.35 A 28.481 28.481 0 0 1 1740.201 276.709 A 18.641 18.641 0 0 1 1746.926 291.198 A 28.495 28.495 0 0 1 1746.217 297.114 Q 1744.814 303.647 1740.638 312.889 A 187.509 187.509 0 0 1 1735.862 322.631 A 431.705 431.705 0 0 1 1735.27 323.791 Q 1716.603 360.225 1696.277 382.754 A 134.573 134.573 0 0 1 1671.738 404.483 Q 1653.971 416.437 1637.289 422.18 A 91.696 91.696 0 0 1 1607.363 427.492 A 104.044 104.044 0 0 1 1584.731 424.977 A 111.531 111.531 0 0 1 1520.859 379.839 A 219.954 219.954 0 0 1 1509.382 361.877 Q 1502.985 350.634 1499.115 340.174 A 93.786 93.786 0 0 1 1493.575 317.35 Q 1490.684 289.438 1490.684 280.385 A 178.883 178.883 0 0 1 1492.058 258.288 A 198.567 198.567 0 0 1 1506.274 205.951 A 197.124 197.124 0 0 1 1510.265 197.578 A 163.686 163.686 0 0 1 1562.225 136.547 Q 1598.562 110.898 1620.439 109.263 Q 1638.215 107.935 1644.038 107.686 A 51.858 51.858 0 0 1 1646.089 107.629 A 94.289 94.289 0 0 1 1708.201 130.26 A 98.644 98.644 0 0 1 1711.407 133.303 Q 1718.078 139.93 1722.365 146.858 A 48.54 48.54 0 0 1 1730.078 172.758 A 55.847 55.847 0 0 1 1728.592 185.517 Q 1726.117 196.098 1719.521 206.546 A 105.895 105.895 0 0 1 1706.692 222.8 A 130.573 130.573 0 0 1 1701.769 227.628 Q 1690.711 237.919 1676.269 246.74 A 225.634 225.634 0 0 1 1647.598 261.399 A 239.74 239.74 0 0 1 1609.066 274.066 A 309.774 309.774 0 0 1 1562.603 281.391 L 1548.269 282.648 L 1548.521 294.718 Z M 1560.591 230.595 A 16.56 16.56 0 0 0 1560.665 230.595 Q 1564.06 230.58 1570.775 229.18 A 178.134 178.134 0 0 0 1575.679 228.08 A 301.541 301.541 0 0 0 1604.119 220.737 A 227.968 227.968 0 0 0 1635.15 208.592 A 321.997 321.997 0 0 0 1636.894 207.743 Q 1654.893 198.917 1663.487 191.83 A 35.349 35.349 0 0 0 1668.344 187.092 Q 1673.791 180.443 1675.238 176.236 A 8.489 8.489 0 0 0 1675.762 173.512 Q 1675.762 168.232 1668.721 164.208 A 58.034 58.034 0 0 0 1646.089 159.682 Q 1628.989 159.682 1609.878 169.489 A 111.499 111.499 0 0 0 1584.361 187.257 A 124.388 124.388 0 0 0 1559.333 220.285 A 48.116 48.116 0 0 0 1558.161 222.669 Q 1557.125 224.946 1556.763 226.549 A 7.037 7.037 0 0 0 1556.567 228.08 Q 1556.567 230.595 1560.591 230.595 Z" id="5" vector-effect="non-scaling-stroke"/><path d="M 1891.519 574.599 A 124.804 124.804 0 0 1 1890.424 574.594 Q 1885.419 574.55 1882.466 574.096 Q 1854.302 567.809 1830.664 551.338 A 121.438 121.438 0 0 1 1822.859 545.452 Q 1807.026 532.402 1807.026 521.288 A 58.645 58.645 0 0 1 1807.109 518.118 Q 1807.853 504.391 1815.325 501.674 Q 1823.623 498.656 1828.149 498.656 A 32.798 32.798 0 0 1 1834.172 499.24 Q 1838.191 499.991 1842.589 501.707 A 72.002 72.002 0 0 1 1851.033 505.698 A 144.642 144.642 0 0 0 1861.14 510.693 Q 1879.314 518.774 1894.536 518.774 A 51.113 51.113 0 0 0 1913.326 515.332 Q 1954.593 499.189 1969.554 407.316 A 611.596 611.596 0 0 0 1975.759 351.55 A 643.204 643.204 0 0 0 1976.176 345.322 Q 1976.765 335.758 1976.765 330.175 Q 1976.765 323.983 1976.021 322.556 A 0.633 0.633 0 0 0 1975.508 322.128 Q 1973.634 322.128 1968.483 332.475 A 209.475 209.475 0 0 0 1966.204 337.216 A 395.216 395.216 0 0 1 1964.442 340.612 Q 1946.801 374.225 1931.388 387.299 A 37.294 37.294 0 0 1 1919.557 394.424 A 253.931 253.931 0 0 1 1909.915 397.518 Q 1900.753 400.24 1894.497 401.143 A 38.977 38.977 0 0 1 1889.004 401.591 A 56.896 56.896 0 0 1 1862.246 394.715 A 82.508 82.508 0 0 1 1846.758 383.989 Q 1817.588 358.591 1800.74 298.742 A 624.294 624.294 0 0 1 1794.271 272.092 Q 1789.556 250.538 1787.092 231.166 A 316.341 316.341 0 0 1 1784.395 191.366 A 267.142 267.142 0 0 1 1784.409 188.602 Q 1784.729 157.668 1792.297 142.903 A 26.4 26.4 0 0 1 1800.74 132.775 A 42.777 42.777 0 0 1 1802.02 132.209 Q 1807.824 129.758 1812.81 129.758 A 19.297 19.297 0 0 1 1820.685 131.412 A 23.226 23.226 0 0 1 1826.641 135.29 A 25.73 25.73 0 0 1 1834.581 147.426 A 33.107 33.107 0 0 1 1835.945 157.167 A 48.611 48.611 0 0 1 1835.568 163.202 Q 1835.32 165.183 1835.235 167.921 A 99.395 99.395 0 0 0 1835.19 170.998 A 182.475 182.475 0 0 0 1835.193 171.895 Q 1835.259 185.462 1837.33 204.483 A 638.1 638.1 0 0 0 1839.717 223.554 Q 1844.774 261.25 1854.219 289.982 A 209.368 209.368 0 0 0 1868.132 323.134 Q 1880.454 346.269 1889.004 346.269 Q 1895.357 346.269 1902.964 338.604 A 67.174 67.174 0 0 0 1907.738 333.193 Q 1914.26 325.02 1920.144 313.606 A 192.119 192.119 0 0 0 1926.975 298.742 A 182.064 182.064 0 0 1 1928.14 295.788 Q 1930.02 291.143 1931.753 287.677 L 1935.273 277.367 A 234.692 234.692 0 0 1 1936.052 275.273 Q 1937.689 270.936 1938.44 269.591 A 2.55 2.55 0 0 1 1938.794 269.069 A 7.028 7.028 0 0 0 1939.551 267.343 Q 1939.81 266.475 1939.935 265.421 A 18.213 18.213 0 0 0 1940.051 263.285 Q 1940.051 260.84 1940.686 259.768 A 1.615 1.615 0 0 1 1941.56 259.01 Q 1942.784 257.787 1943.4 255.59 A 15.343 15.343 0 0 0 1943.823 253.478 A 256.343 256.343 0 0 1 1944.876 249.172 A 286.868 286.868 0 0 1 1948.601 235.876 A 497.281 497.281 0 0 0 1950.315 229.837 Q 1955.604 210.76 1961.52 184.058 A 1686.16 1686.16 0 0 0 1966.204 162.197 Q 1971.209 136.783 1976.51 125.815 A 26.935 26.935 0 0 1 1979.783 120.453 Q 1986.824 111.904 1994.368 111.904 A 18.737 18.737 0 0 1 1995.402 111.932 Q 1997.913 112.071 2000.606 112.879 A 31.803 31.803 0 0 1 2005.181 114.67 A 17.262 17.262 0 0 1 2007.8 116.257 Q 2034.602 135.83 2034.602 278.876 L 2034.351 310.561 A 1001.456 1001.456 0 0 1 2034.148 320.486 Q 2032.393 389.557 2021.312 439.007 A 290.233 290.233 0 0 1 2006.564 486.838 A 195.135 195.135 0 0 1 1994.553 511.04 A 140.094 140.094 0 0 1 1925.718 571.833 Q 1922.7 572.839 1913.899 573.593 A 624.732 624.732 0 0 1 1913.03 573.667 Q 1906.972 574.178 1902.394 574.442 A 218.178 218.178 0 0 1 1899.314 574.599 L 1891.519 574.599 Z" id="6" vector-effect="non-scaling-stroke"/></g></svg>